<svg width="60" height="60" viewBox="0 0 60 60" fill="none" xmlns="http://www.w3.org/2000/svg">
<rect width="60" height="60" rx="30" fill="#240F1B" fill-opacity="0.1"/>
<path d="M30 16.333C34.4181 16.333 37.9998 20.0638 38 24.666C38 28.3111 35.7526 31.4078 32.623 32.5391C34.9554 32.8954 37.2224 33.6985 38.9531 34.8057C40.144 35.5676 41.1401 36.511 41.6943 37.6064C42.2623 38.7293 42.3458 39.9798 41.749 41.2402C40.9718 42.8814 39.1411 43.6028 37.1543 43.9512C35.1386 44.3045 32.6205 44.333 30.0068 44.333C27.3864 44.333 24.9005 44.2872 22.8984 43.9248C20.9183 43.5664 19.1272 42.8478 18.2803 41.2812C17.6415 40.0995 17.7396 38.8809 18.3047 37.7871C18.8558 36.7205 19.8478 35.768 21.0332 34.9814C22.7695 33.8296 25.059 32.9448 27.4209 32.5537C24.2687 31.4355 22 28.3279 22 24.666C22.0002 20.0638 25.5819 16.3331 30 16.333Z" fill="white"/>
</svg>
